<svg fill="none" height="48" viewBox="0 0 219 48" width="219" xmlns="http://www.w3.org/2000/svg" xmlns:xlink="http://www.w3.org/1999/xlink"><filter id="a" color-interpolation-filters="sRGB" filterUnits="userSpaceOnUse" height="54" width="48" x="0" y="-3"><feFlood flood-opacity="0" result="BackgroundImageFix"/><feBlend in="SourceGraphic" in2="BackgroundImageFix" mode="normal" result="shape"/><feColorMatrix in="SourceAlpha" result="hardAlpha" type="matrix" values="0 0 0 0 0 0 0 0 0 0 0 0 0 0 0 0 0 0 127 0"/><feOffset dy="-3"/><feGaussianBlur stdDeviation="1.5"/><feComposite in2="hardAlpha" k2="-1" k3="1" operator="arithmetic"/><feColorMatrix type="matrix" values="0 0 0 0 0 0 0 0 0 0 0 0 0 0 0 0 0 0 0.1 0"/><feBlend in2="shape" mode="normal" result="effect1_innerShadow_3046_38743"/><feColorMatrix in="SourceAlpha" result="hardAlpha" type="matrix" values="0 0 0 0 0 0 0 0 0 0 0 0 0 0 0 0 0 0 127 0"/><feOffset dy="3"/><feGaussianBlur stdDeviation="1.5"/><feComposite in2="hardAlpha" k2="-1" k3="1" operator="arithmetic"/><feColorMatrix type="matrix" values="0 0 0 0 1 0 0 0 0 1 0 0 0 0 1 0 0 0 0.1 0"/><feBlend in2="effect1_innerShadow_3046_38743" mode="normal" result="effect2_innerShadow_3046_38743"/><feColorMatrix in="SourceAlpha" result="hardAlpha" type="matrix" values="0 0 0 0 0 0 0 0 0 0 0 0 0 0 0 0 0 0 127 0"/><feMorphology in="SourceAlpha" operator="erode" radius="1" result="effect3_innerShadow_3046_38743"/><feOffset/><feComposite in2="hardAlpha" k2="-1" k3="1" operator="arithmetic"/><feColorMatrix type="matrix" values="0 0 0 0 0.0627451 0 0 0 0 0.0941176 0 0 0 0 0.156863 0 0 0 0.24 0"/><feBlend in2="effect2_innerShadow_3046_38743" mode="normal" result="effect3_innerShadow_3046_38743"/></filter><filter id="b" color-interpolation-filters="sRGB" filterUnits="userSpaceOnUse" height="46.6667" width="41.6667" x="3.16667" y="3.16667"><feFlood flood-opacity="0" result="BackgroundImageFix"/><feColorMatrix in="SourceAlpha" result="hardAlpha" type="matrix" values="0 0 0 0 0 0 0 0 0 0 0 0 0 0 0 0 0 0 127 0"/><feMorphology in="SourceAlpha" operator="erode" radius="1.66667" result="effect1_dropShadow_3046_38743"/><feOffset dy="2.5"/><feGaussianBlur stdDeviation="2.5"/><feComposite in2="hardAlpha" operator="out"/><feColorMatrix type="matrix" values="0 0 0 0 0.141176 0 0 0 0 0.141176 0 0 0 0 0.141176 0 0 0 0.1 0"/><feBlend in2="BackgroundImageFix" mode="normal" result="effect1_dropShadow_3046_38743"/><feBlend in="SourceGraphic" in2="effect1_dropShadow_3046_38743" mode="normal" result="shape"/></filter><linearGradient id="c" gradientUnits="userSpaceOnUse" x1="24" x2="26" y1=".000001" y2="48"><stop offset="0" stop-color="#fff" stop-opacity="0"/><stop offset="1" stop-color="#fff" stop-opacity=".12"/></linearGradient><linearGradient id="d" gradientUnits="userSpaceOnUse" x1="24.0011" x2="24.0011" y1="6.5" y2="41.5"><stop offset="0" stop-color="#fff" stop-opacity=".8"/><stop offset="1" stop-color="#fff" stop-opacity=".5"/></linearGradient><linearGradient id="e" gradientUnits="userSpaceOnUse" x1="24" x2="24" y1="0" y2="48"><stop offset="0" stop-color="#fff" stop-opacity=".12"/><stop offset="1" stop-color="#fff" stop-opacity="0"/></linearGradient><clipPath id="f"><rect height="48" rx="12" width="48"/></clipPath><g filter="url(#a)"><g clip-path="url(#f)"><rect fill="#22262F" height="48" rx="12" width="48"/><path d="m0 0h48v48h-48z" fill="url(#c)"/><g filter="url(#b)"><path clip-rule="evenodd" d="m24.9194 21.383 8.2495-8.2495-1.7677-1.7678-6.1157 6.1157v-10.9814h-2.5v10.9814l-6.1157-6.1157-1.7678 1.7678 8.2496 8.2495.8839.8839zm1.7662 1.7678 8.2496-8.2496 1.7678 1.7678-6.1157 6.1157h10.913v2.5h-10.913l6.1157 6.1157-1.7678 1.7677-8.2496-8.2495-.8838-.8839zm-13.5518 10.0173 8.2496-8.2495.8839-.8839-.8839-.8839-8.2496-8.2496-1.7678 1.7678 6.1157 6.1157h-10.97975v2.5h10.97975l-6.1157 6.1157zm10.0178-6.4817-8.2496 8.2495 1.7678 1.7678 6.1157-6.1157v10.912h2.5v-10.912l6.1157 6.1157 1.7677-1.7678-8.2495-8.2495-.8839-.8839z" fill="url(#d)" fill-rule="evenodd"/></g></g><rect height="46" rx="11" stroke="url(#e)" stroke-width="2" width="46" x="1" y="1"/></g><g fill="#fff"><path d="m93.2604 32.9961c.3212-.8779.4891-1.8575.4891-2.9121 0-4.293-2.781-7.344-7.371-7.344-4.617 0-7.398 3.051-7.398 7.344 0 1.0546.1678 2.0342.4894 2.9121h4.5483c-.4648-.6873-.7177-1.6644-.7177-2.9121 0-2.673 1.161-4.104 3.078-4.104 1.89 0 3.051 1.431 3.051 4.104 0 1.2477-.253 2.2248-.715 2.9121z"/><path d="m69.6921 17.2319c2.565 0 3.537 1.539 3.888 3.645h4.86c-.459-4.482-3.267-7.614-8.532-7.614-6.102 0-9.369 4.266-9.369 10.071 0 5.832 3.267 10.098 9.369 10.098 5.292 0 8.1-3.132 8.532-7.668h-4.86c-.324 2.16-1.296 3.699-3.888 3.699-3.213 0-4.293-2.484-4.293-6.129 0-3.618 1.08-6.102 4.293-6.102z"/><path d="m108.09 23.6579c0-3.159-1.809-4.914-4.482-4.914-2.457 0-3.8074 1.161-4.5364 2.43h-.054v-2.2439h-4.32v14.0699h4.32v-7.992c0-1.917.945-2.754 2.5924-2.754 1.431 0 2.16.702 2.16 2.781v7.965h4.32z"/><path d="m108.158 19.1759h4.32l2.808 9.018h.054l2.808-9.018h4.32l-4.779 13.824h-4.752z"/><path clip-rule="evenodd" d="m131.292 29.22c-.366.5242-1.053.9719-2.239.9719-1.539 0-2.97-1.026-2.97-2.97h3.917v-.0019h6v.0019h.019c0-5.022-2.403-8.478-7.128-8.478-4.401 0-7.128 3.132-7.128 7.344 0 4.32 2.781 7.344 7.371 7.344 3.568 0 5.696-1.6591 6.547-4.2119zm-5.209-4.6171c0-1.917 1.161-2.889 2.808-2.889s2.808.972 2.808 2.889z" fill-rule="evenodd"/><path d="m144.702 18.9329c.378 0 .702 0 1.188.108v3.78h-.054c-2.214-.405-4.563.81-4.563 3.753v6.426h-4.32v-14.0699h4.32v2.5139h.054c.675-1.539 1.863-2.511 3.375-2.511z"/><path clip-rule="evenodd" d="m159.823 18.93h-4.32v1.6229h-.054c-.54-.729-1.755-1.809-3.78-1.809-3.537 0-5.805 2.808-5.805 6.804s2.268 6.804 5.805 6.804c2.025 0 3.24-1.08 3.78-1.809h.054v.81c0 2.295-.648 3.321-2.592 3.321-1.512 0-2.187-.621-2.457-1.377h-4.32c.486 2.214 2.511 4.482 6.885 4.482 4.185 0 6.804-1.566 6.804-6.129zm-4.401 6.6179c0 2.241-.864 3.564-2.619 3.564s-2.619-1.323-2.619-3.564.864-3.564 2.619-3.564 2.619 1.323 2.619 3.564z" fill-rule="evenodd"/><path clip-rule="evenodd" d="m168.065 30.1919c1.186 0 1.873-.4477 2.239-.9719h4.389c-.851 2.5528-2.979 4.2119-6.547 4.2119-4.59 0-7.371-3.024-7.371-7.344 0-4.212 2.727-7.344 7.128-7.344 4.725 0 7.128 3.456 7.128 8.478h-.031v-.0019h-6v.0019h-3.905c0 1.944 1.431 2.97 2.97 2.97zm-.162-8.478c-1.647 0-2.808.972-2.808 2.889h5.616c0-1.917-1.161-2.889-2.808-2.889z" fill-rule="evenodd"/><path d="m189.356 23.6579c0-3.159-1.809-4.914-4.482-4.914-2.457 0-3.807 1.161-4.536 2.43h-.054v-2.2439h-4.32v14.0699h4.32v-7.992c0-1.917.945-2.754 2.592-2.754 1.431 0 2.16.702 2.16 2.781v7.965h4.32z"/><path d="m199.76 24.3329c-.135-1.107-.729-2.349-2.457-2.349-1.782 0-2.781 1.512-2.781 4.104s.972 4.104 2.781 4.104c1.728 0 2.322-1.161 2.457-2.403h4.239c-.216 3.267-2.7 5.643-6.669 5.643-4.374 0-7.128-3.024-7.128-7.344 0-4.293 2.754-7.344 7.02-7.344 4.023 0 6.426 2.376 6.777 5.589z"/><path clip-rule="evenodd" d="m213.772 29.22c-.366.5242-1.053.9719-2.239.9719-1.539 0-2.97-1.026-2.97-2.97h4.437v-.0019h5.499c-.001-5.021-2.404-8.4761-7.128-8.4761-4.401 0-7.128 3.132-7.128 7.344 0 4.32 2.781 7.344 7.371 7.344 3.568 0 5.696-1.6591 6.547-4.2119zm-5.209-4.6171c0-1.917 1.161-2.889 2.808-2.889s2.808.972 2.808 2.889z" fill-rule="evenodd"/></g></svg>